<svg xmlns="http://www.w3.org/2000/svg" viewBox="0 0 359.5756 95.5474"><defs>
<style>.cls-1{fill:#fff;}.cls-1,.cls-2,.cls-3{fill-rule:evenodd;}.cls-2{fill:#fff;}.cls-3{fill:#fff;}</style>
</defs>
<g id="Layer_2" data-name="Layer 2">
<g id="Layer_1-2" data-name="Layer 1">
<path class="cls-1" d="M161.0246,0h5.19L153.2089,51.2912H137.64l6.0911-23.786-15.0866,23.786H114.7189l-2.9908-23.786-6.0046,23.786H90.1545L103.16,0h19.0287l4.146,32.9545L147.1858,0Zm29.8406,0H179.5343l6.6072,7.6116-27.6565,43.68h16.52l18.586-29.4947,3.73,29.4947h16.5206L207.3858,0Zm94.3653,0L260.7032,25.6887l11.5223,25.6025H254.84l-6.029-13.2338-12.74,13.2338H218.685l24.5466-25.6025L231.6906,0h17.3857l6.048,13.32L267.8454,0Z"/><path class="cls-2" d="M151.2794,58.4978a10.6494,10.6494,0,0,1,3.931.6871,7.528,7.528,0,0,1,2.8568,1.9057,6.6035,6.6035,0,0,1,1.5321,2.8429,7.058,7.058,0,0,1-.0414,3.4988l-4.8826,19.243a9.1552,9.1552,0,0,1-1.7042,3.4676,13.8536,13.8536,0,0,1-2.9727,2.8117A14.4014,14.4014,0,0,1,146.17,94.86a13.6825,13.6825,0,0,1-4.2848.6871H127.14a10.6738,10.6738,0,0,1-3.8-.6562,7.4,7.4,0,0,1-2.8876-1.9057,6.3838,6.3838,0,0,1-1.5154-6.31L123.8063,67.37a9.7492,9.7492,0,0,1,1.7112-3.4361,13.3451,13.3451,0,0,1,2.9662-2.8429,14.5269,14.5269,0,0,1,3.7973-1.9057,13.3963,13.3963,0,0,1,4.2537-.6871Zm-12.212,29.3646a5.3527,5.3527,0,0,0,3.1224-.9995,4.2384,4.2384,0,0,0,1.8085-2.4264l3.7309-14.8281a2.4653,2.4653,0,0,0-.5346-2.4261,3.3252,3.3252,0,0,0-2.5945-.9995h-5.1857a5.3527,5.3527,0,0,0-3.1224.9995,4.235,4.235,0,0,0-1.8082,2.4261L130.69,84.4365a2.4287,2.4287,0,0,0,.5655,2.4264,3.4261,3.4261,0,0,0,2.6257.9995Z"/><path class="cls-2" d="M191.5163,58.4978a10.6511,10.6511,0,0,1,3.9311.6871,7.5276,7.5276,0,0,1,2.8565,1.9057,6.5982,6.5982,0,0,1,1.5321,2.8429,7.0637,7.0637,0,0,1-.0411,3.4988l-4.883,19.243a9.1406,9.1406,0,0,1-1.7042,3.4676,13.852,13.852,0,0,1-2.9724,2.8117,14.3982,14.3982,0,0,1-3.829,1.9057,13.6822,13.6822,0,0,1-4.2846.6871H167.377a10.6729,10.6729,0,0,1-3.8-.6562,7.4055,7.4055,0,0,1-2.888-1.9057,6.3839,6.3839,0,0,1-1.5151-6.31L164.0435,67.37a9.7428,9.7428,0,0,1,1.7107-3.4361,13.3526,13.3526,0,0,1,2.9664-2.8429,14.5257,14.5257,0,0,1,3.7971-1.9057,13.398,13.398,0,0,1,4.2539-.6871ZM179.3044,87.8624a5.3506,5.3506,0,0,0,3.122-.9995,4.2371,4.2371,0,0,0,1.8085-2.4264l3.731-14.8281a2.4646,2.4646,0,0,0-.5346-2.4261,3.3243,3.3243,0,0,0-2.5943-.9995h-5.186a5.3506,5.3506,0,0,0-3.122.9995,4.2356,4.2356,0,0,0-1.8085,2.4261l-3.7934,14.8281a2.4284,2.4284,0,0,0,.5658,2.4264,3.4254,3.4254,0,0,0,2.6255.9995Z"/><path class="cls-2" d="M216.0774,66.1828l-.6928,2.8114q3.12,1.6867,6.5457,3.6235t6.1441,3.4991a7.0456,7.0456,0,0,1,3.0549,3.3738,6.8337,6.8337,0,0,1,.2552,4.5606l-.4479,1.937-2.4551,9.5592H197.43q.8679-3.4363,1.3009-5.1545t.665-2.6555q.23-.937.4053-1.5619t.5108-1.9366h11.1833l-.8884,3.6235h8.6218l1.0732-4.4878q-1.3528-.75-3.2283-1.7495c-1.25-.6664-2.5243-1.3434-3.8254-2.0515s-2.57-1.4054-3.8038-2.0931-2.3023-1.28-3.204-1.78a4.8352,4.8352,0,0,1-2.2-2.3326,4.6889,4.6889,0,0,1-.1934-3.1445l2.9781-11.7252h31.0516L234.938,70.1187a8.7913,8.7913,0,0,0-1.6764-1.9366,9.2541,9.2541,0,0,0-2.1768-1.3746,7.4508,7.4508,0,0,0-3.1991-.6247Z"/><polygon class="cls-2" points="272.24 58.498 270.309 66.183 260.313 66.183 252.849 95.547 241.665 95.547 249.066 66.183 239.07 66.183 241 58.498 272.24 58.498"/><path class="cls-2" d="M92.4684,87.8536,94.424,80.24h10.7875l-1.9445,7.622H92.41l.0584-.0085Zm3.93-15.2985,1.6367-6.3732H108.8l-1.658,6.3732Zm-17.18,22.9923H104.71a9.6282,9.6282,0,0,0,3.1632-.5312,12.2993,12.2993,0,0,0,2.8454-1.4057,9.1045,9.1045,0,0,0,2.2255-2.0928,7.7671,7.7671,0,0,0,1.3034-2.5928l1.4556-5.8737a4.8282,4.8282,0,0,0-1.0707-4.7169,6.4911,6.4911,0,0,0-5.0125-1.9057,9.6229,9.6229,0,0,0,3.1632-.5312,11.4911,11.4911,0,0,0,2.8389-1.4369,9.5663,9.5663,0,0,0,2.1943-2.0931,7.6654,7.6654,0,0,0,1.279-2.5617L120.25,65.12a5.4332,5.4332,0,0,0,.0295-2.5617,4.7575,4.7575,0,0,0-1.1171-2.0928,5.76,5.76,0,0,0-2.1291-1.4372,7.6954,7.6954,0,0,0-2.9282-.5309H88.6133Z"/><path class="cls-3" d="M109.8731,76.4255l-.2534.0031a6.4911,6.4911,0,0,1,5.0125,1.9057,4.8282,4.8282,0,0,1,1.0707,4.7169l-1.4556,5.8737a7.7671,7.7671,0,0,1-1.3034,2.5928,9.1045,9.1045,0,0,1-2.2255,2.0928,12.2993,12.2993,0,0,1-2.8454,1.4057,9.6282,9.6282,0,0,1-3.1632.5312H79.2181q.2173-1,.8082-3.28t1.2909-5.061q.6994-2.78,1.4411-5.6543t1.3074-5.1233l.0008-.0031ZM105.2115,80.24H94.34l-1.9451,7.622H103.267Z"/><path class="cls-3" d="M157.2769,76.4255l-2.6008,10.25a9.1526,9.1526,0,0,1-1.7042,3.467,13.83,13.83,0,0,1-2.9732,2.8117A14.3954,14.3954,0,0,1,146.17,94.86a13.6755,13.6755,0,0,1-4.2848.6874H127.14a10.6725,10.6725,0,0,1-3.7993-.6562,7.3987,7.3987,0,0,1-2.8879-1.9054,6.3815,6.3815,0,0,1-1.5149-6.31l2.5852-10.25H132.74L130.69,84.4362a2.4285,2.4285,0,0,0,.5661,2.4265,3.4256,3.4256,0,0,0,2.6254.9994h5.1857a5.3527,5.3527,0,0,0,3.1224-.9994,4.2386,4.2386,0,0,0,1.8088-2.4265l2.0154-8.0107Z"/><path class="cls-3" d="M197.5133,76.4255l-2.6,10.25a9.15,9.15,0,0,1-1.7045,3.467,13.818,13.818,0,0,1-2.9727,2.8117,14.3918,14.3918,0,0,1-3.8287,1.9057,13.6739,13.6739,0,0,1-4.2849.6874H167.3773a10.675,10.675,0,0,1-3.8-.6562,7.4009,7.4009,0,0,1-2.8879-1.9054,6.3829,6.3829,0,0,1-1.5151-6.31l2.5849-10.25h11.2167l-2.0492,8.0107a2.4285,2.4285,0,0,0,.5661,2.4265,3.4256,3.4256,0,0,0,2.6255.9994h5.1857a5.3524,5.3524,0,0,0,3.1223-.9994,4.2382,4.2382,0,0,0,1.8088-2.4265l2.0154-8.0107Z"/><path class="cls-3" d="M228.5674,76.4255A6.9244,6.9244,0,0,1,231.13,79.49a6.8367,6.8367,0,0,1,.2551,4.561l-.4484,1.9369-2.4551,9.56H197.4294q.8678-3.4368,1.3016-5.1548t.6648-2.6552q.23-.937.4053-1.5619t.5105-1.9369h11.1841l-.8889,3.6235h8.6221l1.0732-4.4878q-1.3521-.75-3.2278-1.7492c-1.2506-.6667-2.5245-1.3434-3.8262-2.0517s-2.569-1.4055-3.8035-2.0929l-1.897-1.055Z"/><polygon class="cls-3" points="257.709 76.425 252.849 95.547 241.665 95.547 246.485 76.425 257.709 76.425"/><path class="cls-1" d="M270.0368,95.5265l22.705-88.8951h.0144A8.128,8.128,0,0,1,301.1553.0267h23.1965l-23.5386,95.5Z"/><path class="cls-1" d="M324.004,24.101l1.8059-7.0534h.01a5.0146,5.0146,0,0,1,5.1826-4.0751h14.1128L327.3372,82.58H309.5906Z"/><path class="cls-1" d="M338.9933,58.2585l4.7321-17.6527h.0085a4.0742,4.0742,0,0,1,4.2112-3.3117h11.63l-5.15,20.9644Z"/><path class="cls-1" d="M0,58.2585,4.7321,40.6058H4.74a4.0746,4.0746,0,0,1,4.2114-3.3117H20.5823l-5.15,20.9644Z"/>
<path class="cls-1" d="M34.9549,95.5265,57.66,6.6314h.0147A8.1279,8.1279,0,0,1,66.0733.0267H89.27l-23.5384,95.5Z"/>
<path class="cls-1" d="M29.3559,24.101l1.8059-7.0534h.01a5.0146,5.0146,0,0,1,5.1826-4.0751H50.4674L32.6891,82.58H14.9425Z"/>
</g></g>
</svg>